<?xml version="1.0" encoding="utf-8"?>
<!-- Generator: Adobe Illustrator 21.0.0, SVG Export Plug-In . SVG Version: 6.00 Build 0)  -->
<svg version="1.1" id="Layer_1" xmlns="http://www.w3.org/2000/svg" xmlns:xlink="http://www.w3.org/1999/xlink" x="0px" y="0px"
	 viewBox="0 0 1907.8 45.7" style="enable-background:new 0 0 1907.8 45.7;" xml:space="preserve">
<style type="text/css">
	.st0{fill:#F6741E;}
	.st1{fill:#F6461E;}
</style>
<path class="st0" d="M1920,11.1c0,0-32.8,25.4-83.9,25.4S1699.5,0,1576.5,0c0,0-25-1-47.4,8.9V0h391L1920,11.1z"/>
<path class="st1" d="M1430.8,0c0,0,41.1,45.7,105,45.7S1706.8,0,1860.7,0c0,0,31.3-1.2,59.3,11.1V0H1430.8L1430.8,0z"/>
<path class="st0" d="M966.1,11.1c0,0-32.8,25.4-83.9,25.4S745.6,0.1,622.5,0.1c0,0-25-1-47.4,8.9V0h391V11.1z"/>
<path class="st1" d="M477,0c0,0,41.1,45.7,105,45.7S752.8,0,906.7,0c0,0,31.3-1.2,59.3,11.1V0H477L477,0z"/>
<path class="st0" d="M489.1,11.1c0,0-32.8,25.4-83.9,25.4S268.6,0.1,145.5,0.1c0,0-25-1-47.4,8.9V0h391V11.1z"/>
<path class="st1" d="M0,0c0,0,41.1,45.7,105,45.7S275.8,0,429.8,0c0,0,31.3-1.2,59.3,11.1V0H0L0,0z"/>
<path class="st0" d="M1443,11.1c0,0-32.8,25.4-83.9,25.4S1222.5,0.1,1099.5,0.1c0,0-25-1-47.4,8.9V0h391L1443,11.1z"/>
<path class="st1" d="M953.9,0c0,0,41.1,45.7,105,45.7S1229.8,0,1383.7,0c0,0,31.3-1.2,59.3,11.1V0H953.9L953.9,0z"/>
</svg>
