<svg id="Layer_1" data-name="Layer 1" xmlns="http://www.w3.org/2000/svg" viewBox="0 0 1907.85 45.68"><defs><style>.cls-1{fill:#f6461e;}.cls-2{fill:#f6741e;}</style></defs><title>top-border</title><path class="cls-1" d="M-12.15,34.56S20.69,9.13,71.79,9.13s136.6,36.5,259.64,36.5c0,0,25,1,47.44-8.91v8.93h-391Z"/><path class="cls-2" d="M477,45.65S435.88,0,372,0,201.1,45.65,47.19,45.65c0,0-31.3,1.2-59.35-11.14V45.68H477Z"/><path class="cls-1" d="M941.76,34.56S974.61,9.13,1025.7,9.13s136.6,36.5,259.64,36.5c0,0,25,1,47.44-8.91v8.93h-391Z"/><path class="cls-2" d="M1430.88,45.65S1389.8,0,1325.88,0,1155,45.65,1001.11,45.65c0,0-31.3,1.2-59.35-11.14V45.68h489.12Z"/><path class="cls-1" d="M1418.73,34.56s32.85-25.43,83.94-25.43,136.6,36.5,259.64,36.5c0,0,25,1,47.44-8.91v8.93h-391Z"/><path class="cls-2" d="M1907.85,45.65S1866.76,0,1802.85,0,1632,45.65,1478.07,45.65c0,0-31.3,1.2-59.35-11.14V45.68h489.12Z"/><path class="cls-1" d="M464.81,34.56S497.65,9.13,548.75,9.13s136.6,36.5,259.64,36.5c0,0,25,1,47.44-8.91v8.93h-391Z"/><path class="cls-2" d="M953.93,45.65S912.84,0,848.93,0,678.06,45.65,524.15,45.65c0,0-31.3,1.2-59.35-11.14V45.68H953.93Z"/></svg>